<svg width="350" height="339" viewBox="0 0 350 339" fill="none" xmlns="http://www.w3.org/2000/svg">
<rect width="350" height="339" fill="white"/>
<rect width="350" height="339" stroke="white"/>
<path d="M111.563 133.642C116.909 129.592 120.308 125.511 127.245 125.511C131.082 125.511 135.29 124.349 139.441 124.349C146.707 124.349 151.921 127.104 158.026 130.157" stroke="black" stroke-width="3" stroke-linecap="round"/>
<path d="M125.502 173.135C134.028 173.135 141.338 175.459 149.895 175.459" stroke="black" stroke-width="3" stroke-linecap="round"/>
<path d="M205.651 127.834C216.035 121.756 232.719 115.76 239.336 128.996" stroke="black" stroke-width="3" stroke-linecap="round"/>
<path d="M206.812 174.297C215.987 174.297 224.774 171.974 233.528 171.974" stroke="black" stroke-width="3" stroke-linecap="round"/>
<path d="M217.266 171.974C212.207 165.296 209.135 158.87 209.135 150.485C209.135 144.594 206.307 138.137 209.135 132.48" stroke="black" stroke-width="3" stroke-linecap="round"/>
<path d="M231.205 130.157C232.705 137.843 242.378 168.13 232.367 173.135" stroke="black" stroke-width="3" stroke-linecap="round"/>
<path d="M132.472 171.974C121.262 167.599 118.533 161.882 118.533 150.162C118.533 143 117.74 136.388 120.856 130.157" stroke="black" stroke-width="3" stroke-linecap="round"/>
<path d="M142.926 174.297C150.828 168.311 151.057 166.009 151.057 156.873C151.057 154.624 151.61 151.549 150.992 149.388C150.406 147.337 148.14 145.782 147.637 143.515C146.307 137.534 136.244 128.996 130.148 128.996" stroke="black" stroke-width="3" stroke-linecap="round"/>
<path d="M130.148 139.45C130.148 145.645 130.148 151.84 130.148 158.035C130.148 159.715 131.053 161.779 132.213 162.939C133.273 163.999 134.795 168.116 134.795 166.618C134.795 160.853 134.795 155.088 134.795 149.323C134.795 143.331 129.971 142.58 127.825 138.288" stroke="black" stroke-width="3" stroke-linecap="round"/>
<path d="M220.751 135.965C219.556 142.088 216.969 150.396 219.59 156.293C220.718 158.833 221.404 160.681 221.977 163.262C222.228 164.388 224.236 170.88 224.236 166.747C224.236 157.382 222.383 146.197 218.428 138.288" stroke="black" stroke-width="3" stroke-linecap="round"/>
</svg>
