<svg width="350" height="339" viewBox="0 0 350 339" fill="none" xmlns="http://www.w3.org/2000/svg">
<g id="Frame 4">
<rect width="350" height="339"/>
<path d="M126.695 186.693C133.115 186.693 140.036 187.649 145.536 184.899" stroke="black" stroke-width="3" stroke-linecap="round"/>
<path d="M151.816 157.983C144.965 157.816 129.129 152.295 123.106 157.983C120.289 160.644 116.085 163.492 114.982 167.354C114.488 169.082 107.368 164.264 106.06 164.264" stroke="black" stroke-width="3" stroke-linecap="round"/>
<path d="M202.955 158.881C210.508 153.388 217.557 152.6 226.73 152.6C229.63 152.6 233.188 155.393 233.509 153.946C234.268 150.529 237.424 148.26 238.842 145.423" stroke="black" stroke-width="3" stroke-linecap="round"/>
<path d="M209.235 185.796C213.738 185.796 218.652 184.899 222.693 184.899" stroke="black" stroke-width="3" stroke-linecap="round"/>
<path d="M123.106 161.572C123.106 168.339 121.161 179.44 128.489 183.104" stroke="black" stroke-width="3" stroke-linecap="round"/>
<path d="M144.638 158.881C145.587 163.74 147.33 166.991 147.33 171.89C147.33 175.813 146.433 179.303 146.433 183.104" stroke="black" stroke-width="3" stroke-linecap="round"/>
<path d="M207.441 159.778C207.441 168.44 209.246 175.958 211.927 184.002" stroke="black" stroke-width="3" stroke-linecap="round"/>
<path d="M225.385 156.189C226.788 163.38 227.745 173.898 224.488 180.413" stroke="black" stroke-width="3" stroke-linecap="round"/>
<path d="M122.9 164.852C125.295 160.761 126.738 155.881 131.872 155.881" stroke="black" stroke-width="3" stroke-linecap="round"/>
<path d="M207.235 165.955C207.235 162.435 208.408 154.292 213.516 154.292" stroke="black" stroke-width="3" stroke-linecap="round"/>
</g>
</svg>
