<svg width="350" height="339" viewBox="0 0 350 339" fill="none" xmlns="http://www.w3.org/2000/svg">
<g>
<rect width="350" height="339" fill="white"/>
<rect width="350" height="339" stroke="white"/>
<path d="M112.725 162.681C118.464 160.242 122.621 156.933 128.406 155.647C133.063 154.612 137.422 154.55 142.345 154.55C145.762 154.55 152.187 153.363 154.8 155.454C155.623 156.112 165.118 161.52 163.834 161.52" stroke="black" stroke-width="3" stroke-linecap="round"/>
<path d="M185.904 161.52C192.155 158.928 197.061 154.55 203.908 154.55C208.282 154.55 213.143 153.389 217.847 153.389C222.3 153.389 226.753 153.389 231.205 153.389C235.09 153.389 237.371 157.633 240.498 159.197" stroke="black" stroke-width="3" stroke-linecap="round"/>
<path d="M137.118 162.681C124.978 165.346 124.341 172.889 124.341 183.59C124.341 187.668 139.642 190.419 143.442 189.333C149.261 187.67 152.218 180.388 152.218 174.878C152.218 165.762 137.118 169.954 137.118 165.004" stroke="black" stroke-width="3" stroke-linecap="round"/>
<path d="M219.59 162.681C214.81 162.681 202.621 163.081 202.166 170.812C201.897 175.384 202.438 181.736 207.974 182.428C211.701 182.894 219.515 185.837 222.816 182.17C227.711 176.731 226.156 168.608 220.751 165.004" stroke="black" stroke-width="3" stroke-linecap="round"/>
<path d="M137.118 173.135C133.259 175.942 128.603 178.47 130.213 184.106C130.688 185.769 137.142 187.482 138.796 187.01C140.443 186.539 142.926 181.644 142.926 180.105C142.926 175.66 140.128 174.297 135.956 174.297" stroke="black" stroke-width="3" stroke-linecap="round"/>
<path d="M211.459 170.812C208.751 172.928 202.581 177.551 206.554 181.524C208.814 183.784 213.49 184.42 216.621 183.525C218.08 183.108 217.266 175.182 217.266 173.716C217.266 169.722 211.824 170.812 209.135 170.812" stroke="black" stroke-width="3" stroke-linecap="round"/>
</g>
</svg>
