<svg width="353" height="357" viewBox="0 0 353 357" fill="none" xmlns="http://www.w3.org/2000/svg">
<g id="Frame 9">
<rect x="3" y="18" width="350" height="339" fill="white"/>
<path d="M133.633 98.7948C133.633 119.375 127.141 145.019 106.917 155.131C93.9466 161.616 87.1145 172.197 83.6856 185.913" stroke="black" stroke-width="3" stroke-linecap="round"/>
<path d="M133.633 98.7948C145.788 108.688 157.821 117.921 171.965 124.607C188.545 132.445 206.346 131.879 224.236 133.384C244.913 135.123 265.232 138.27 280.637 153.389C284.169 156.855 287.084 160.604 289.284 165.004C290.489 167.414 294.728 171.883 290.445 170.812" stroke="black" stroke-width="3" stroke-linecap="round"/>
<path d="M293.126 168.057C293.126 157.083 293.405 146.188 291.976 135.284C289.461 116.084 281.26 95.9957 271.246 79.5435C260.064 61.1733 244.429 48.309 224.098 41.0205C213.958 37.3853 203.82 35.6083 193.082 35.1111C182.574 34.6247 171.713 34.2892 161.458 37.0916C143.396 42.0278 129.251 53.2484 121.785 70.312C119.573 75.3693 119.486 80.4107 119.486 85.8362C119.486 89.0657 119.046 92.5668 120.061 95.6107" stroke="black" stroke-width="3" stroke-linecap="round"/>
<path d="M139 43C126.559 43 115.172 43.207 103.788 49.8834C94.9124 55.0884 87.1997 61.495 81.5085 71.1074C77.8476 77.2904 74.4128 82.9276 71.4012 89.5907C68.1299 96.8286 66.0434 104.724 63.685 112.408C59.5874 125.758 58.311 139.876 59.3378 154.027C59.8692 161.35 63.3248 169.511 65.6412 176.303C68.1317 183.606 70.8372 190.589 74.3356 197.304C76.7054 201.852 78.802 206.156 81.8073 210.21C83.871 212.994 86.7418 214.945 89.0074 217.508C94.669 223.911 102.019 225.016 109.167 227.706C111.862 228.719 114.754 230 117.481 230" stroke="black" stroke-width="3" stroke-linecap="round"/>
<path d="M90 57.4886C79.4706 55.8124 69.5666 54 58.8648 54C49.0482 54 41.9433 57.4458 34.1962 63.8843C24.2106 72.1833 18.5248 84.7582 15.6348 97.7366C11.3435 117.008 11.6798 137.792 12.5213 157.495C14.1309 195.182 37.1732 224.493 47.3089 259.245C49.8684 268.021 53.0858 279.457 51.3205 288.769C51.0358 290.271 47.9313 293.472 46.8897 291.224" stroke="black" stroke-width="3" stroke-linecap="round"/>
<path d="M67.9638 189.906C65.6631 193.165 66.2263 196.973 65.7917 200.83C65.2936 205.251 65.089 209.732 65.089 214.182C65.089 225.504 65.6086 236.957 65.057 248.265C64.5369 258.927 60.7899 269.048 55.8575 278.419C53.5912 282.725 49.1513 289.459 44.965 292.25" stroke="black" stroke-width="3" stroke-linecap="round"/>
</g>
</svg>
