<svg width="300" height="245" viewBox="0 0 300 245" fill="none" xmlns="http://www.w3.org/2000/svg">
<g id="Frame 7">
<path d="M57.3624 86.0873C57.3624 93.0078 56.3297 100.57 59.1693 107.06C59.5866 108.014 64.0518 118.112 65.2353 117.192C68.6271 114.554 87.5633 118.941 87.5633 115.707C87.5633 111.954 89.5943 100.536 87.3052 97.9612C84.863 95.2137 91.9094 103.747 93.6293 106.996C95.1016 109.777 96.0972 112.762 96.9204 115.643C97.3903 117.287 108.303 116.288 110.214 116.288C117.396 116.288 113.395 115.474 113.118 110.48C112.718 103.285 111.956 96.2292 111.956 88.9913C111.956 85.3919 110.402 78.6299 110.795 86.0873C111.101 91.9036 115.94 96.7142 116.603 102.349C116.854 104.486 119.519 110.154 120.668 112.223C122.207 114.992 132.78 116.288 136.414 116.288C137.829 116.288 149.936 118.447 150.03 118.353C151.214 117.169 149.127 105.799 149.127 103.511C149.127 99.9039 146.818 94.3237 149.127 100.672C150.384 104.129 153.643 109.157 155.838 111.9C158.686 115.46 159.659 115.127 164.937 115.127C168.746 115.127 172.784 116.159 176.359 116.159C178.63 116.159 175.528 109.278 175.327 108.673C171.951 98.5462 174.045 87.1485 170.938 77.0529C169.95 73.8419 169.245 72.8597 170.293 77.0529C171.505 81.9005 174.63 86.2664 176.746 90.7336C179.138 95.7831 180.231 101.686 182.296 106.996C183.56 110.245 184.252 113.487 185.2 116.804C185.609 118.237 191.33 117.45 192.686 117.45C196.462 117.45 193.266 108.575 193.266 112.803C193.266 119.632 203.113 119.139 208.238 119.708C211.009 120.016 218.385 121.116 216.24 116.288C214.216 111.735 215.921 106.283 214.433 101.446C213.711 99.1014 210.912 92.57 213.013 98.3484C214.74 103.097 218.775 107.079 219.918 112.223C220.678 115.645 222.114 117.45 225.79 117.45C229.794 117.45 237 119.448 231.598 115.127" stroke="black" stroke-width="3" stroke-linecap="round"/>
<path d="M134.026 4.7773C124.648 4.7773 115.269 4.7773 105.89 4.7773C96.403 4.7773 87.3717 8.33046 78.5289 11.4886C56.6714 19.2949 40.4683 44.7349 29.2266 63.7593C21.3892 77.0227 20.2626 92.5834 15.5458 106.996C9.41231 125.737 5.89533 145.3 3.672 164.816C1.71137 182.026 2.08632 200.044 5.34982 217.087C6.92521 225.314 9.73798 234.92 9.73798 242.9" stroke="black" stroke-width="3" stroke-linecap="round"/>
<path d="M12.0612 242.9C22.1281 242.9 32.1951 242.9 42.262 242.9C48.8201 242.9 54.6134 240.576 60.8472 240.576" stroke="black" stroke-width="3" stroke-linecap="round"/>
<path d="M134.026 4.77729C147.991 4.77729 161.396 2.45415 175.327 2.45415C193.362 2.45415 208.228 8.35946 222.306 19.8777C235.434 30.6195 245.457 44.7309 254.83 58.7904C261.067 68.1471 265.351 79.1786 269.349 89.6366C274.079 102.006 280.53 114.126 284.385 126.742C294.496 159.833 297.808 192.283 297.808 226.638C297.808 228.36 298.948 236.597 297.55 237.995C296.295 239.25 289.766 238.253 287.999 238.253C279.824 238.253 271.732 239.415 264.122 239.415" stroke="black" stroke-width="3" stroke-linecap="round"/>
</g>
</svg>
