<svg width="350" height="339" viewBox="0 0 350 339" fill="none" xmlns="http://www.w3.org/2000/svg">
<rect width="350" height="339" fill="white"/>
<path d="M108.079 38.393C100.44 38.393 84.3162 35.3268 77.8777 39.6191C69.8831 44.9489 66.0417 51.7013 62.7773 60.9791C59.0375 71.6081 56.1045 80.2341 54.0655 91.2445C51.4328 105.461 52.3231 120.156 52.3231 134.545C52.3231 147.509 56.7838 159.24 58.131 172.038C59.6873 186.824 63.6904 201.309 65.3586 216.114C67.1028 231.593 66.3774 246.084 59.2926 260.253C58.5919 261.655 50.5676 279.974 47.6768 274.192" stroke="black" stroke-width="3" stroke-linecap="round"/>
<path d="M108.079 40.7162C113.652 32.914 119.448 30.7633 128.471 28.4551C138.213 25.9629 147.959 22.1684 158.026 21.2276C169.789 20.1283 187.254 18.599 198.681 22.131C231.533 32.2852 258.252 59.199 268.311 91.8899C280.739 132.282 279.122 176.13 287.606 217.34C291.641 236.936 306.919 260.253 328.777 260.253" stroke="black" stroke-width="3" stroke-linecap="round"/>
<path d="M113.611 108.659C123.271 108.659 132.183 110.385 141.081 114.409C147.13 117.144 153.665 121.01 160.183 122.458C173.548 125.428 187.448 125.908 201.134 125.908C213.811 125.908 226.555 126.3 239.178 125.365C244.629 124.961 250.251 124.183 255.628 124.183" stroke="black" stroke-width="3" stroke-linecap="round"/>
<path d="M113.036 108.659C110.761 121.55 103.06 134.619 94.9242 144.563C93.4007 146.425 87.9963 150.057 85.4372 150.057" stroke="black" stroke-width="3" stroke-linecap="round"/>
<path d="M51.514 277.125C64.3667 277.125 77.1723 277.7 90.037 277.7C95.1551 277.7 100.024 277.244 105.114 276.678C111.261 275.995 118.227 275.184 124.088 273.1C130.82 270.707 138.581 269.969 144.787 266.201C146.723 265.025 148.95 264.215 150.984 263.198C152.006 262.687 154.603 261.837 155.009 261.026" stroke="black" stroke-width="3" stroke-linecap="round"/>
<path d="M223.43 251.826C236.37 253.675 248.236 260.698 260.803 264.188C269.278 266.543 279.411 265.051 288.114 265.051C302.641 265.051 317.128 264.483 330.949 259.876" stroke="black" stroke-width="3" stroke-linecap="round"/>
</svg>
