<svg width="350" height="339" viewBox="0 0 350 339" fill="none" xmlns="http://www.w3.org/2000/svg">
<g id="Frame 7">
<rect width="350" height="339"/>
<path d="M175 27.0248C186.473 26.8609 197.824 23 209.243 23C224.078 23 237.125 28.7256 250.321 35.2021C258.27 39.1033 265.717 43.3462 273.32 47.8515C278.379 50.8493 284.037 54.1416 287.918 58.6481C298.658 71.1212 304.24 87.8333 308.84 103.368C314.549 122.646 317.592 143.716 317.592 163.836C317.592 171.657 318.01 179.616 317.273 187.409C316.553 195.021 314.602 202.437 312.418 209.737C310.453 216.304 309.308 223.15 307.946 229.861C306.716 235.917 306.112 242.796 304.049 248.612C302.893 251.869 300.724 255.863 296.894 255.863" stroke="black" stroke-width="3" stroke-linecap="round"/>
<path d="M174.557 27.0134C163.084 26.8495 151.733 22.9886 140.315 22.9886C125.479 22.9886 112.432 28.7141 99.2365 35.1907C91.2879 39.0919 83.8403 43.3348 76.2377 47.84C71.1789 50.8378 65.5204 54.1302 61.6398 58.6367C50.8992 71.1098 45.3174 87.8219 40.7173 103.357C35.0087 122.635 31.965 143.705 31.965 163.824C31.965 171.645 31.5472 179.605 32.2845 187.398C33.0045 195.01 34.9559 202.426 37.1398 209.726C39.1041 216.292 40.2493 223.139 41.6117 229.85C42.8412 235.906 43.445 242.784 45.5088 248.6C46.6647 251.858 48.8338 255.851 52.6639 255.851" stroke="black" stroke-width="3" stroke-linecap="round"/>
<path d="M52.6639 255.851C58.4934 255.851 63.6513 255.87 69.3061 257.001C72.4362 257.627 71.4082 256.807 71.9254 253.807C72.2625 251.852 73.3628 249.501 73.3628 247.674C73.3628 246.97 73.1472 243.621 73.4906 244.48C74.5487 247.125 77.6293 249.038 79.3681 251.252C81.0842 253.436 81.5798 256.39 83.1373 258.726" stroke="black" stroke-width="3" stroke-linecap="round"/>
<path d="M83.1373 258.726C84.0188 258.726 103.189 258.287 103.133 258.151C102.105 255.655 102.111 251.112 102.111 248.409C102.111 245.764 100.961 242.928 100.961 240.583C100.961 239.124 101.148 237.648 100.514 236.302C100.287 235.819 101.85 238.671 102.239 239.305C103.901 242.013 105.475 244.772 106.999 247.514C108.319 249.892 109.187 255.939 111.311 257.001" stroke="black" stroke-width="3" stroke-linecap="round"/>
<path d="M111.886 257.001C116.475 257.001 121.064 257.001 125.653 257.001C126.382 257.001 129.046 257.409 129.582 256.873C130.536 255.919 129.71 251.133 129.71 249.846C129.71 247.718 129.426 245.885 129.167 243.809C128.775 240.676 129.877 243.474 130.988 244.927C131.998 246.248 133.668 247.794 134.31 249.239C135.016 250.829 136.911 255.715 138.334 256.426" stroke="black" stroke-width="3" stroke-linecap="round"/>
<path d="M138.334 256.426C143.674 256.426 149.409 257.001 154.434 257.001" stroke="black" stroke-width="3" stroke-linecap="round"/>
<path d="M295.876 256.426C291.947 256.426 286.894 256.022 283.674 258.598C281.834 260.071 279.57 251.384 278.883 250.134C277.797 248.161 276.216 246.386 274.858 244.639C272.41 241.493 273.452 247.457 273.452 248.952C273.452 253.046 275.177 256.913 275.177 260.898C275.177 264.248 269.032 262.751 266.489 262.751C261.229 262.751 255.969 262.751 250.709 262.751C248.007 262.751 247.682 263.012 247.579 260.323C247.507 258.464 246.185 255.457 245.279 253.871C244.27 252.105 245.244 258.64 245.279 259.301C245.353 260.715 245.914 263.326 244.129 263.326C240.469 263.326 237.256 262.176 233.492 262.176C230.521 262.176 221.609 262.176 224.58 262.176" stroke="black" stroke-width="3" stroke-linecap="round"/>
<path d="M81.3624 108.087C81.3624 115.008 80.3297 122.57 83.1693 129.06C83.5866 130.014 88.0518 140.112 89.2353 139.192C92.6271 136.554 111.563 140.941 111.563 137.707C111.563 133.954 113.594 122.536 111.305 119.961C108.863 117.214 115.909 125.747 117.629 128.996C119.102 131.777 120.097 134.762 120.92 137.643C121.39 139.287 132.303 138.288 134.214 138.288C141.396 138.288 137.395 137.474 137.118 132.48C136.718 125.285 135.956 118.229 135.956 110.991C135.956 107.392 134.402 100.63 134.795 108.087C135.101 113.904 139.94 118.714 140.603 124.349C140.854 126.486 143.519 132.154 144.668 134.223C146.207 136.992 156.78 138.288 160.414 138.288C161.829 138.288 173.936 140.447 174.03 140.353C175.214 139.169 173.127 127.799 173.127 125.511C173.127 121.904 170.818 116.324 173.127 122.672C174.384 126.129 177.643 131.157 179.838 133.9C182.686 137.46 183.659 137.127 188.937 137.127C192.746 137.127 196.784 138.159 200.359 138.159C202.63 138.159 199.528 131.278 199.327 130.673C195.951 120.546 198.045 109.149 194.938 99.0529C193.95 95.8419 193.245 94.8597 194.293 99.0529C195.505 103.901 198.63 108.266 200.746 112.734C203.138 117.783 204.231 123.686 206.296 128.996C207.56 132.245 208.252 135.487 209.2 138.804C209.609 140.237 215.33 139.45 216.686 139.45C220.462 139.45 217.266 130.575 217.266 134.803C217.266 141.632 227.113 141.139 232.238 141.708C235.009 142.016 242.385 143.116 240.24 138.288C238.216 133.735 239.921 128.283 238.433 123.446C237.711 121.101 234.912 114.57 237.013 120.348C238.74 125.097 242.775 129.079 243.918 134.223C244.678 137.645 246.114 139.45 249.79 139.45C253.794 139.45 261 141.448 255.598 137.127" stroke="black" stroke-width="3" stroke-linecap="round"/>
</g>
</svg>
