<svg width="350" height="339" viewBox="0 0 350 339" fill="none" xmlns="http://www.w3.org/2000/svg">
<rect x="1.5" y="1.5" width="347" height="336" fill="white" stroke="white" stroke-width="3"/>
<path d="M83.6856 117.38C83.6856 127.315 84.8471 137.396 84.8471 147C84.8471 150.666 86.8769 160.319 89.2353 162.939C92.6549 166.739 92.0589 175.885 95.8821 178.943C97.2909 180.07 96.5832 183.453 98.2052 184.751C99.6272 185.889 101.713 190.09 102.529 191.721C105.905 198.472 109.11 204.916 113.886 210.886C118.29 216.391 125.123 220.381 130.148 225.406C140.242 235.5 150.244 244.553 162.672 251.864C173.715 258.36 189.95 265.849 202.166 257.027C210.295 251.156 217.189 244.331 225.914 239.345C228.993 237.585 232.305 231.681 234.69 228.955C238.028 225.14 241.157 220.61 243.983 216.372C249.987 207.364 257.176 198.436 259.147 187.59C260.638 179.395 260.245 171.058 260.245 162.681C260.245 149.716 257.921 136.969 257.921 124.349" stroke="#111111" stroke-width="3" stroke-linecap="round"/>
<path d="M149.787 243.527C151.071 249.516 155.144 254.567 157.198 260.316C158.899 265.081 160.208 269.738 160.208 274.79" stroke="black" stroke-width="3" stroke-linecap="round"/>
<path d="M222.733 242.485C222.657 246.986 221.691 251.281 221.691 255.8C221.691 258.492 221.691 261.185 221.691 263.877C221.691 268.501 222.924 272.565 224.817 276.353" stroke="black" stroke-width="3" stroke-linecap="round"/>
</svg>
