<svg width="350" height="339" viewBox="0 0 350 339" fill="none" xmlns="http://www.w3.org/2000/svg">
<g>
<rect x="1.5" y="1.5" width="347" height="336" fill="white" stroke="white" stroke-width="3"/>
<path d="M188.75 210.5C187.242 209.358 186.376 209.25 184.556 209.25C183.28 209.25 182.425 210.384 181.806 211.5C180.69 213.508 180.255 215.867 179 217.75" stroke="black" stroke-width="3" stroke-linecap="round"/>
<path d="M188.5 211.5C188.851 209.899 190.061 208.5 191.75 208.5C193.074 208.5 194.143 209.624 194.806 210.75C195.541 212 196.047 213.434 196.944 214.556C197.478 215.222 197.72 216.86 198.5 217.25" stroke="black" stroke-width="3" stroke-linecap="round"/>
<path d="M178.25 219C181.628 219 185.583 219.468 188.875 218.736C190.335 218.412 192.003 217.838 193.5 217.75C193.941 217.724 194.939 217.241 195.361 217C195.941 216.669 196.547 216.75 197.25 216.75" stroke="black" stroke-width="3" stroke-linecap="round"/>
<path d="M198.25 218.25C197.357 222.316 193.222 227.5 188.875 227.5C188.499 227.5 187.872 228.09 187.5 227.625C187.156 227.195 186.56 226.699 186.125 226.361C185.257 225.686 183.816 225.101 183.25 224.111C182.391 222.609 179.769 220.759 178.25 220" stroke="black" stroke-width="3" stroke-linecap="round"/>
</g>
</svg>
